<mxfile host="app.diagrams.net" agent="Mozilla/5.0 (Windows NT 10.0; Win64; x64) AppleWebKit/537.36 (KHTML, like Gecko) Chrome/136.0.0.0 Safari/537.36 Edg/136.0.0.0" version="27.0.6">
  <diagram name="Pagina-1" id="IdZIklXSNSVNDeojrIxg">
    <mxGraphModel dx="591" dy="1478" grid="1" gridSize="10" guides="1" tooltips="1" connect="1" arrows="1" fold="1" page="1" pageScale="1" pageWidth="827" pageHeight="1169" math="0" shadow="0">
      <root>
        <mxCell id="0" />
        <mxCell id="1" parent="0" />
        <mxCell id="zjp3u2C6ABEVa1yzkm6k-19" style="edgeStyle=orthogonalEdgeStyle;rounded=0;orthogonalLoop=1;jettySize=auto;html=1;exitX=1;exitY=0;exitDx=0;exitDy=0;entryX=0.5;entryY=1;entryDx=0;entryDy=0;endArrow=none;startFill=0;" edge="1" parent="1" source="xMFfn7sjVob-yf2wYUGk-1" target="xMFfn7sjVob-yf2wYUGk-2">
          <mxGeometry relative="1" as="geometry" />
        </mxCell>
        <mxCell id="zjp3u2C6ABEVa1yzkm6k-23" style="edgeStyle=orthogonalEdgeStyle;rounded=0;orthogonalLoop=1;jettySize=auto;html=1;exitX=0.5;exitY=0;exitDx=0;exitDy=0;entryX=0.5;entryY=1;entryDx=0;entryDy=0;endArrow=none;startFill=0;" edge="1" parent="1" source="xMFfn7sjVob-yf2wYUGk-1" target="xMFfn7sjVob-yf2wYUGk-37">
          <mxGeometry relative="1" as="geometry" />
        </mxCell>
        <mxCell id="xMFfn7sjVob-yf2wYUGk-1" value="&lt;font&gt;Cliente&lt;/font&gt;" style="whiteSpace=wrap;html=1;align=center;fontFamily=Times New Roman;" parent="1" vertex="1">
          <mxGeometry x="265" y="117.99999999999999" width="110" height="40" as="geometry" />
        </mxCell>
        <mxCell id="xMFfn7sjVob-yf2wYUGk-2" value="&lt;font&gt;Carta di&lt;br&gt;Credito&lt;/font&gt;" style="ellipse;whiteSpace=wrap;html=1;align=center;fontFamily=Times New Roman;" parent="1" vertex="1">
          <mxGeometry x="370" y="3" width="100" height="40" as="geometry" />
        </mxCell>
        <mxCell id="xMFfn7sjVob-yf2wYUGk-3" value="" style="ellipse;whiteSpace=wrap;html=1;aspect=fixed;fontFamily=Times New Roman;" parent="1" vertex="1">
          <mxGeometry x="370" y="-17" width="10" height="10" as="geometry" />
        </mxCell>
        <mxCell id="xMFfn7sjVob-yf2wYUGk-4" value="" style="ellipse;whiteSpace=wrap;html=1;aspect=fixed;fontFamily=Times New Roman;" parent="1" vertex="1">
          <mxGeometry x="400" y="-17" width="10" height="10" as="geometry" />
        </mxCell>
        <mxCell id="xMFfn7sjVob-yf2wYUGk-5" style="edgeStyle=orthogonalEdgeStyle;rounded=0;orthogonalLoop=1;jettySize=auto;html=1;exitX=0.5;exitY=1;exitDx=0;exitDy=0;entryX=0.05;entryY=0.25;entryDx=0;entryDy=0;entryPerimeter=0;endArrow=none;startFill=0;fontFamily=Times New Roman;" parent="1" source="xMFfn7sjVob-yf2wYUGk-3" target="xMFfn7sjVob-yf2wYUGk-2" edge="1">
          <mxGeometry relative="1" as="geometry" />
        </mxCell>
        <mxCell id="xMFfn7sjVob-yf2wYUGk-6" style="edgeStyle=orthogonalEdgeStyle;rounded=0;orthogonalLoop=1;jettySize=auto;html=1;exitX=0.5;exitY=1;exitDx=0;exitDy=0;entryX=0.35;entryY=0.041;entryDx=0;entryDy=0;entryPerimeter=0;endArrow=none;startFill=0;fontFamily=Times New Roman;" parent="1" source="xMFfn7sjVob-yf2wYUGk-4" target="xMFfn7sjVob-yf2wYUGk-2" edge="1">
          <mxGeometry relative="1" as="geometry" />
        </mxCell>
        <mxCell id="xMFfn7sjVob-yf2wYUGk-7" value="" style="ellipse;whiteSpace=wrap;html=1;aspect=fixed;fontFamily=Times New Roman;" parent="1" vertex="1">
          <mxGeometry x="420" y="-17" width="10" height="10" as="geometry" />
        </mxCell>
        <mxCell id="xMFfn7sjVob-yf2wYUGk-8" value="" style="ellipse;whiteSpace=wrap;html=1;aspect=fixed;fontFamily=Times New Roman;" parent="1" vertex="1">
          <mxGeometry x="460" y="-17" width="10" height="10" as="geometry" />
        </mxCell>
        <mxCell id="xMFfn7sjVob-yf2wYUGk-9" style="edgeStyle=orthogonalEdgeStyle;rounded=0;orthogonalLoop=1;jettySize=auto;html=1;exitX=0.5;exitY=1;exitDx=0;exitDy=0;entryX=0.55;entryY=0.003;entryDx=0;entryDy=0;entryPerimeter=0;endArrow=none;startFill=0;fontFamily=Times New Roman;" parent="1" source="xMFfn7sjVob-yf2wYUGk-7" target="xMFfn7sjVob-yf2wYUGk-2" edge="1">
          <mxGeometry relative="1" as="geometry" />
        </mxCell>
        <mxCell id="xMFfn7sjVob-yf2wYUGk-10" value="&lt;font style=&quot;font-size: 10px;&quot;&gt;Intestatario&lt;/font&gt;" style="text;html=1;align=center;verticalAlign=middle;whiteSpace=wrap;rounded=0;fontFamily=Times New Roman;fontSize=12;fontColor=default;labelBackgroundColor=default;" parent="1" vertex="1">
          <mxGeometry x="340" y="-40" width="60" height="30" as="geometry" />
        </mxCell>
        <mxCell id="xMFfn7sjVob-yf2wYUGk-11" value="&lt;font&gt;CVV&lt;/font&gt;" style="text;html=1;align=center;verticalAlign=middle;resizable=0;points=[];autosize=1;strokeColor=none;fillColor=none;fontFamily=Times New Roman;fontSize=10;fontColor=default;labelBackgroundColor=default;" parent="1" vertex="1">
          <mxGeometry x="385" y="-40" width="40" height="30" as="geometry" />
        </mxCell>
        <mxCell id="xMFfn7sjVob-yf2wYUGk-12" value="&lt;font&gt;Numero&lt;/font&gt;" style="text;html=1;align=center;verticalAlign=middle;resizable=0;points=[];autosize=1;strokeColor=none;fillColor=none;fontFamily=Times New Roman;fontSize=10;fontColor=default;labelBackgroundColor=default;" parent="1" vertex="1">
          <mxGeometry x="405" y="-40" width="60" height="30" as="geometry" />
        </mxCell>
        <mxCell id="xMFfn7sjVob-yf2wYUGk-15" value="" style="ellipse;whiteSpace=wrap;html=1;aspect=fixed;fontFamily=Times New Roman;" parent="1" vertex="1">
          <mxGeometry x="355" y="190" width="10" height="10" as="geometry" />
        </mxCell>
        <mxCell id="xMFfn7sjVob-yf2wYUGk-16" value="" style="ellipse;whiteSpace=wrap;html=1;aspect=fixed;fontFamily=Times New Roman;" parent="1" vertex="1">
          <mxGeometry x="295" y="190" width="10" height="10" as="geometry" />
        </mxCell>
        <mxCell id="xMFfn7sjVob-yf2wYUGk-17" value="" style="ellipse;whiteSpace=wrap;html=1;aspect=fixed;fillColor=#FFFFFF;fontFamily=Times New Roman;" parent="1" vertex="1">
          <mxGeometry x="275" y="190" width="10" height="10" as="geometry" />
        </mxCell>
        <mxCell id="xMFfn7sjVob-yf2wYUGk-18" style="edgeStyle=orthogonalEdgeStyle;shape=connector;rounded=0;orthogonalLoop=1;jettySize=auto;html=1;exitX=0.5;exitY=0;exitDx=0;exitDy=0;entryX=0.135;entryY=0.99;entryDx=0;entryDy=0;entryPerimeter=0;strokeColor=default;align=center;verticalAlign=middle;fontFamily=Times New Roman;fontSize=7;fontColor=default;labelBackgroundColor=default;autosize=1;resizable=0;startFill=0;endArrow=none;" parent="1" source="xMFfn7sjVob-yf2wYUGk-17" target="xMFfn7sjVob-yf2wYUGk-1" edge="1">
          <mxGeometry relative="1" as="geometry" />
        </mxCell>
        <mxCell id="xMFfn7sjVob-yf2wYUGk-19" value="&lt;font&gt;CF&lt;/font&gt;" style="text;html=1;align=center;verticalAlign=middle;resizable=0;points=[];autosize=1;strokeColor=none;fillColor=none;fontFamily=Times New Roman;fontSize=12;fontColor=default;labelBackgroundColor=default;" parent="1" vertex="1">
          <mxGeometry x="255" y="200" width="40" height="30" as="geometry" />
        </mxCell>
        <mxCell id="xMFfn7sjVob-yf2wYUGk-20" style="edgeStyle=orthogonalEdgeStyle;shape=connector;rounded=0;orthogonalLoop=1;jettySize=auto;html=1;exitX=0.5;exitY=0;exitDx=0;exitDy=0;entryX=0.314;entryY=0.988;entryDx=0;entryDy=0;entryPerimeter=0;strokeColor=default;align=center;verticalAlign=middle;fontFamily=Times New Roman;fontSize=7;fontColor=default;labelBackgroundColor=default;autosize=1;resizable=0;startFill=0;endArrow=none;" parent="1" source="xMFfn7sjVob-yf2wYUGk-16" target="xMFfn7sjVob-yf2wYUGk-1" edge="1">
          <mxGeometry relative="1" as="geometry" />
        </mxCell>
        <mxCell id="xMFfn7sjVob-yf2wYUGk-21" value="&lt;font&gt;Data&lt;br&gt;Nascita&lt;/font&gt;" style="text;html=1;align=center;verticalAlign=middle;resizable=0;points=[];autosize=1;strokeColor=none;fillColor=none;fontFamily=Times New Roman;fontSize=12;fontColor=default;labelBackgroundColor=default;" parent="1" vertex="1">
          <mxGeometry x="275" y="195" width="60" height="40" as="geometry" />
        </mxCell>
        <mxCell id="xMFfn7sjVob-yf2wYUGk-22" value="&lt;font&gt;Citta&lt;br&gt;Nascita&lt;/font&gt;" style="text;html=1;align=center;verticalAlign=middle;resizable=0;points=[];autosize=1;strokeColor=none;fillColor=none;fontFamily=Times New Roman;fontSize=12;fontColor=default;labelBackgroundColor=default;" parent="1" vertex="1">
          <mxGeometry x="325" y="195" width="60" height="40" as="geometry" />
        </mxCell>
        <mxCell id="xMFfn7sjVob-yf2wYUGk-23" style="edgeStyle=orthogonalEdgeStyle;shape=connector;rounded=0;orthogonalLoop=1;jettySize=auto;html=1;exitX=1;exitY=0.5;exitDx=0;exitDy=0;entryX=0;entryY=0.75;entryDx=0;entryDy=0;strokeColor=default;align=center;verticalAlign=middle;fontFamily=Times New Roman;fontSize=11;fontColor=default;labelBackgroundColor=default;startFill=0;endArrow=none;" parent="1" source="xMFfn7sjVob-yf2wYUGk-24" target="xMFfn7sjVob-yf2wYUGk-1" edge="1">
          <mxGeometry relative="1" as="geometry" />
        </mxCell>
        <mxCell id="xMFfn7sjVob-yf2wYUGk-24" value="" style="ellipse;whiteSpace=wrap;html=1;aspect=fixed;fontFamily=Times New Roman;" parent="1" vertex="1">
          <mxGeometry x="240" y="149.76" width="10" height="10" as="geometry" />
        </mxCell>
        <mxCell id="xMFfn7sjVob-yf2wYUGk-25" style="edgeStyle=orthogonalEdgeStyle;shape=connector;rounded=0;orthogonalLoop=1;jettySize=auto;html=1;exitX=0.5;exitY=0;exitDx=0;exitDy=0;entryX=0.864;entryY=1.002;entryDx=0;entryDy=0;entryPerimeter=0;strokeColor=default;align=center;verticalAlign=middle;fontFamily=Times New Roman;fontSize=11;fontColor=default;labelBackgroundColor=default;startFill=0;endArrow=none;" parent="1" source="xMFfn7sjVob-yf2wYUGk-15" target="xMFfn7sjVob-yf2wYUGk-1" edge="1">
          <mxGeometry relative="1" as="geometry" />
        </mxCell>
        <mxCell id="xMFfn7sjVob-yf2wYUGk-26" value="" style="ellipse;whiteSpace=wrap;html=1;aspect=fixed;fontFamily=Times New Roman;" parent="1" vertex="1">
          <mxGeometry x="240" y="129.76" width="10" height="10" as="geometry" />
        </mxCell>
        <mxCell id="xMFfn7sjVob-yf2wYUGk-27" style="edgeStyle=orthogonalEdgeStyle;shape=connector;rounded=0;orthogonalLoop=1;jettySize=auto;html=1;exitX=1;exitY=0.5;exitDx=0;exitDy=0;entryX=0.002;entryY=0.224;entryDx=0;entryDy=0;entryPerimeter=0;strokeColor=default;align=center;verticalAlign=middle;fontFamily=Times New Roman;fontSize=11;fontColor=default;labelBackgroundColor=default;startFill=0;endArrow=none;" parent="1" source="xMFfn7sjVob-yf2wYUGk-26" target="xMFfn7sjVob-yf2wYUGk-1" edge="1">
          <mxGeometry relative="1" as="geometry" />
        </mxCell>
        <mxCell id="xMFfn7sjVob-yf2wYUGk-32" value="&lt;font&gt;(1,n)&lt;/font&gt;" style="text;html=1;align=center;verticalAlign=middle;resizable=0;points=[];autosize=1;strokeColor=none;fillColor=none;fontFamily=Times New Roman;fontSize=12;fontColor=default;labelBackgroundColor=default;" parent="1" vertex="1">
          <mxGeometry x="365" y="92.99999999999999" width="50" height="30" as="geometry" />
        </mxCell>
        <mxCell id="xMFfn7sjVob-yf2wYUGk-33" style="edgeStyle=orthogonalEdgeStyle;rounded=0;orthogonalLoop=1;jettySize=auto;html=1;exitX=0.5;exitY=1;exitDx=0;exitDy=0;entryX=0.947;entryY=0.288;entryDx=0;entryDy=0;entryPerimeter=0;endArrow=none;startFill=0;fontFamily=Times New Roman;" parent="1" source="xMFfn7sjVob-yf2wYUGk-8" target="xMFfn7sjVob-yf2wYUGk-2" edge="1">
          <mxGeometry relative="1" as="geometry" />
        </mxCell>
        <mxCell id="xMFfn7sjVob-yf2wYUGk-36" value="&lt;font&gt;Password&lt;/font&gt;" style="text;html=1;align=center;verticalAlign=middle;resizable=0;points=[];autosize=1;strokeColor=none;fillColor=none;fontSize=10;fontFamily=Times New Roman;" parent="1" vertex="1">
          <mxGeometry x="325" y="63" width="60" height="30" as="geometry" />
        </mxCell>
        <mxCell id="xMFfn7sjVob-yf2wYUGk-37" value="" style="ellipse;whiteSpace=wrap;html=1;aspect=fixed;fillColor=#000000;fontFamily=Times New Roman;" parent="1" vertex="1">
          <mxGeometry x="315" y="90" width="10" height="10" as="geometry" />
        </mxCell>
        <mxCell id="xMFfn7sjVob-yf2wYUGk-38" value="" style="ellipse;whiteSpace=wrap;html=1;aspect=fixed;fontFamily=Times New Roman;" parent="1" vertex="1">
          <mxGeometry x="355" y="90" width="10" height="10" as="geometry" />
        </mxCell>
        <mxCell id="xMFfn7sjVob-yf2wYUGk-45" value="Nome utente" style="text;html=1;align=center;verticalAlign=middle;resizable=0;points=[];autosize=1;strokeColor=none;fillColor=none;fontFamily=Times New Roman;fontSize=10;fontColor=default;labelBackgroundColor=default;" parent="1" vertex="1">
          <mxGeometry x="270" y="63" width="70" height="30" as="geometry" />
        </mxCell>
        <mxCell id="xMFfn7sjVob-yf2wYUGk-46" value="&lt;span style=&quot;font-family: &amp;quot;Times New Roman&amp;quot;; font-size: 10px;&quot;&gt;Data&lt;/span&gt;&lt;br style=&quot;font-family: &amp;quot;Times New Roman&amp;quot;; font-size: 10px;&quot;&gt;&lt;span style=&quot;font-family: &amp;quot;Times New Roman&amp;quot;; font-size: 10px;&quot;&gt;Scadenza&lt;/span&gt;" style="text;html=1;align=center;verticalAlign=middle;resizable=0;points=[];autosize=1;strokeColor=none;fillColor=none;fontFamily=Helvetica;fontSize=11;fontColor=default;labelBackgroundColor=default;" parent="1" vertex="1">
          <mxGeometry x="450" y="-57" width="60" height="40" as="geometry" />
        </mxCell>
        <mxCell id="zjp3u2C6ABEVa1yzkm6k-2" value="" style="ellipse;whiteSpace=wrap;html=1;aspect=fixed;fontFamily=Times New Roman;" vertex="1" parent="1">
          <mxGeometry x="730" y="70" width="10" height="10" as="geometry" />
        </mxCell>
        <mxCell id="zjp3u2C6ABEVa1yzkm6k-3" value="&lt;font style=&quot;&quot;&gt;Formulare&lt;/font&gt;" style="shape=rhombus;perimeter=rhombusPerimeter;whiteSpace=wrap;html=1;align=center;fontFamily=Times New Roman;" vertex="1" parent="1">
          <mxGeometry x="470" y="100" width="130" height="60" as="geometry" />
        </mxCell>
        <mxCell id="zjp3u2C6ABEVa1yzkm6k-4" value="&lt;font&gt;Offerte&lt;/font&gt;" style="whiteSpace=wrap;html=1;align=center;fontFamily=Times New Roman;" vertex="1" parent="1">
          <mxGeometry x="670" y="104.75999999999999" width="120" height="40" as="geometry" />
        </mxCell>
        <mxCell id="zjp3u2C6ABEVa1yzkm6k-5" style="edgeStyle=orthogonalEdgeStyle;shape=connector;rounded=0;orthogonalLoop=1;jettySize=auto;html=1;exitX=0;exitY=0.5;exitDx=0;exitDy=0;entryX=1;entryY=0.5;entryDx=0;entryDy=0;strokeColor=default;align=center;verticalAlign=middle;fontFamily=Times New Roman;fontSize=11;fontColor=default;labelBackgroundColor=default;startFill=0;endArrow=none;" edge="1" parent="1" source="zjp3u2C6ABEVa1yzkm6k-6" target="zjp3u2C6ABEVa1yzkm6k-4">
          <mxGeometry relative="1" as="geometry" />
        </mxCell>
        <mxCell id="zjp3u2C6ABEVa1yzkm6k-6" value="" style="ellipse;whiteSpace=wrap;html=1;aspect=fixed;fontFamily=Times New Roman;" vertex="1" parent="1">
          <mxGeometry x="810" y="119.75999999999999" width="10" height="10" as="geometry" />
        </mxCell>
        <mxCell id="zjp3u2C6ABEVa1yzkm6k-7" value="&lt;font&gt;Valore&lt;br&gt;Effettivo&lt;/font&gt;" style="text;html=1;align=center;verticalAlign=middle;resizable=0;points=[];autosize=1;strokeColor=none;fillColor=none;fontFamily=Times New Roman;fontSize=12;fontColor=default;labelBackgroundColor=default;" vertex="1" parent="1">
          <mxGeometry x="810" y="104.75999999999999" width="70" height="40" as="geometry" />
        </mxCell>
        <mxCell id="zjp3u2C6ABEVa1yzkm6k-8" style="edgeStyle=orthogonalEdgeStyle;shape=connector;rounded=0;orthogonalLoop=1;jettySize=auto;html=1;exitX=1;exitY=0.5;exitDx=0;exitDy=0;entryX=-0.004;entryY=0.63;entryDx=0;entryDy=0;entryPerimeter=0;strokeColor=default;align=center;verticalAlign=middle;fontFamily=Times New Roman;fontSize=11;fontColor=default;labelBackgroundColor=default;startFill=0;endArrow=none;" edge="1" parent="1" source="zjp3u2C6ABEVa1yzkm6k-3" target="zjp3u2C6ABEVa1yzkm6k-4">
          <mxGeometry relative="1" as="geometry" />
        </mxCell>
        <mxCell id="zjp3u2C6ABEVa1yzkm6k-9" value="&lt;font&gt;(0,1)&lt;/font&gt;" style="text;html=1;align=center;verticalAlign=middle;resizable=0;points=[];autosize=1;strokeColor=none;fillColor=none;fontFamily=Times New Roman;fontSize=12;fontColor=default;labelBackgroundColor=default;" vertex="1" parent="1">
          <mxGeometry x="630" y="125.39999999999998" width="50" height="30" as="geometry" />
        </mxCell>
        <mxCell id="zjp3u2C6ABEVa1yzkm6k-10" style="edgeStyle=orthogonalEdgeStyle;shape=connector;rounded=0;orthogonalLoop=1;jettySize=auto;html=1;exitX=0.5;exitY=1;exitDx=0;exitDy=0;strokeColor=default;align=center;verticalAlign=middle;fontFamily=Times New Roman;fontSize=11;fontColor=default;labelBackgroundColor=default;startFill=0;endArrow=none;entryX=0.542;entryY=-0.01;entryDx=0;entryDy=0;entryPerimeter=0;" edge="1" parent="1" source="zjp3u2C6ABEVa1yzkm6k-2" target="zjp3u2C6ABEVa1yzkm6k-4">
          <mxGeometry relative="1" as="geometry">
            <mxPoint x="735" y="100" as="targetPoint" />
          </mxGeometry>
        </mxCell>
        <mxCell id="zjp3u2C6ABEVa1yzkm6k-11" value="&lt;font&gt;Offerta massima&lt;br&gt;&lt;/font&gt;" style="text;html=1;align=center;verticalAlign=middle;resizable=0;points=[];autosize=1;strokeColor=none;fillColor=none;fontFamily=Times New Roman;fontSize=12;fontColor=default;labelBackgroundColor=default;" vertex="1" parent="1">
          <mxGeometry x="690" y="40" width="100" height="30" as="geometry" />
        </mxCell>
        <mxCell id="zjp3u2C6ABEVa1yzkm6k-12" value="&lt;font&gt;(0,1)&lt;/font&gt;" style="text;html=1;align=center;verticalAlign=middle;resizable=0;points=[];autosize=1;strokeColor=none;fillColor=none;fontSize=12;fontFamily=Times New Roman;" vertex="1" parent="1">
          <mxGeometry x="730" y="80.39999999999998" width="50" height="30" as="geometry" />
        </mxCell>
        <mxCell id="zjp3u2C6ABEVa1yzkm6k-13" value="" style="ellipse;whiteSpace=wrap;html=1;aspect=fixed;fontFamily=Times New Roman;fillColor=#000000;" vertex="1" parent="1">
          <mxGeometry x="795" y="104.75999999999999" width="10" height="10" as="geometry" />
        </mxCell>
        <mxCell id="zjp3u2C6ABEVa1yzkm6k-15" value="" style="endArrow=none;html=1;rounded=0;edgeStyle=orthogonalEdgeStyle;curved=1;" edge="1" parent="1">
          <mxGeometry width="50" height="50" relative="1" as="geometry">
            <mxPoint x="690" y="185" as="sourcePoint" />
            <mxPoint x="800" y="115" as="targetPoint" />
          </mxGeometry>
        </mxCell>
        <mxCell id="zjp3u2C6ABEVa1yzkm6k-16" value="" style="endArrow=none;html=1;rounded=0;edgeStyle=orthogonalEdgeStyle;curved=1;" edge="1" parent="1">
          <mxGeometry width="50" height="50" relative="1" as="geometry">
            <mxPoint x="690" y="185" as="sourcePoint" />
            <mxPoint x="630" y="115" as="targetPoint" />
          </mxGeometry>
        </mxCell>
        <mxCell id="zjp3u2C6ABEVa1yzkm6k-21" value="Nome" style="text;html=1;align=center;verticalAlign=middle;resizable=0;points=[];autosize=1;strokeColor=none;fillColor=none;" vertex="1" parent="1">
          <mxGeometry x="180" y="118" width="60" height="30" as="geometry" />
        </mxCell>
        <mxCell id="zjp3u2C6ABEVa1yzkm6k-22" value="Cognome" style="text;html=1;align=center;verticalAlign=middle;resizable=0;points=[];autosize=1;strokeColor=none;fillColor=none;" vertex="1" parent="1">
          <mxGeometry x="160" y="138" width="80" height="30" as="geometry" />
        </mxCell>
        <mxCell id="zjp3u2C6ABEVa1yzkm6k-24" style="edgeStyle=orthogonalEdgeStyle;rounded=0;orthogonalLoop=1;jettySize=auto;html=1;exitX=0.5;exitY=1;exitDx=0;exitDy=0;entryX=0.86;entryY=0;entryDx=0;entryDy=0;entryPerimeter=0;fontFamily=Times New Roman;endArrow=none;startFill=0;" edge="1" parent="1" source="xMFfn7sjVob-yf2wYUGk-38" target="xMFfn7sjVob-yf2wYUGk-1">
          <mxGeometry relative="1" as="geometry" />
        </mxCell>
        <mxCell id="zjp3u2C6ABEVa1yzkm6k-25" value="Indirizzo" style="ellipse;whiteSpace=wrap;html=1;align=center;fontFamily=Times New Roman;" vertex="1" parent="1">
          <mxGeometry x="175" y="10" width="100" height="40" as="geometry" />
        </mxCell>
        <mxCell id="zjp3u2C6ABEVa1yzkm6k-26" value="" style="ellipse;whiteSpace=wrap;html=1;aspect=fixed;fontFamily=Times New Roman;" vertex="1" parent="1">
          <mxGeometry x="175" y="-10" width="10" height="10" as="geometry" />
        </mxCell>
        <mxCell id="zjp3u2C6ABEVa1yzkm6k-27" value="" style="ellipse;whiteSpace=wrap;html=1;aspect=fixed;fontFamily=Times New Roman;" vertex="1" parent="1">
          <mxGeometry x="255" y="-10" width="10" height="10" as="geometry" />
        </mxCell>
        <mxCell id="zjp3u2C6ABEVa1yzkm6k-28" style="edgeStyle=orthogonalEdgeStyle;rounded=0;orthogonalLoop=1;jettySize=auto;html=1;exitX=0.5;exitY=1;exitDx=0;exitDy=0;entryX=0.05;entryY=0.25;entryDx=0;entryDy=0;entryPerimeter=0;endArrow=none;startFill=0;fontFamily=Times New Roman;" edge="1" parent="1" source="zjp3u2C6ABEVa1yzkm6k-26" target="zjp3u2C6ABEVa1yzkm6k-25">
          <mxGeometry relative="1" as="geometry" />
        </mxCell>
        <mxCell id="zjp3u2C6ABEVa1yzkm6k-29" style="edgeStyle=orthogonalEdgeStyle;rounded=0;orthogonalLoop=1;jettySize=auto;html=1;exitX=0.5;exitY=1;exitDx=0;exitDy=0;entryX=1;entryY=0;entryDx=0;entryDy=0;endArrow=none;startFill=0;fontFamily=Times New Roman;" edge="1" parent="1" target="zjp3u2C6ABEVa1yzkm6k-25">
          <mxGeometry relative="1" as="geometry">
            <mxPoint x="260" as="sourcePoint" />
            <mxPoint x="260" y="11.6400000000001" as="targetPoint" />
          </mxGeometry>
        </mxCell>
        <mxCell id="zjp3u2C6ABEVa1yzkm6k-30" value="" style="ellipse;whiteSpace=wrap;html=1;aspect=fixed;fontFamily=Times New Roman;" vertex="1" parent="1">
          <mxGeometry x="210" y="-10" width="10" height="10" as="geometry" />
        </mxCell>
        <mxCell id="zjp3u2C6ABEVa1yzkm6k-33" value="&lt;font style=&quot;font-size: 10px;&quot;&gt;Via&lt;/font&gt;" style="text;html=1;align=center;verticalAlign=middle;whiteSpace=wrap;rounded=0;fontFamily=Times New Roman;fontSize=12;fontColor=default;labelBackgroundColor=default;" vertex="1" parent="1">
          <mxGeometry x="145" y="-33" width="60" height="30" as="geometry" />
        </mxCell>
        <mxCell id="zjp3u2C6ABEVa1yzkm6k-34" value="&lt;font&gt;CAP&lt;/font&gt;" style="text;html=1;align=center;verticalAlign=middle;resizable=0;points=[];autosize=1;strokeColor=none;fillColor=none;fontFamily=Times New Roman;fontSize=10;fontColor=default;labelBackgroundColor=default;" vertex="1" parent="1">
          <mxGeometry x="240" y="-33" width="40" height="30" as="geometry" />
        </mxCell>
        <mxCell id="zjp3u2C6ABEVa1yzkm6k-35" value="&lt;font&gt;Civico&lt;/font&gt;" style="text;html=1;align=center;verticalAlign=middle;resizable=0;points=[];autosize=1;strokeColor=none;fillColor=none;fontFamily=Times New Roman;fontSize=10;fontColor=default;labelBackgroundColor=default;" vertex="1" parent="1">
          <mxGeometry x="190" y="-33" width="50" height="30" as="geometry" />
        </mxCell>
        <mxCell id="zjp3u2C6ABEVa1yzkm6k-39" style="edgeStyle=orthogonalEdgeStyle;rounded=0;orthogonalLoop=1;jettySize=auto;html=1;exitX=0.5;exitY=1;exitDx=0;exitDy=0;entryX=0.142;entryY=0.015;entryDx=0;entryDy=0;entryPerimeter=0;" edge="1" parent="1" source="zjp3u2C6ABEVa1yzkm6k-25" target="xMFfn7sjVob-yf2wYUGk-1">
          <mxGeometry relative="1" as="geometry" />
        </mxCell>
        <mxCell id="zjp3u2C6ABEVa1yzkm6k-40" style="edgeStyle=orthogonalEdgeStyle;rounded=0;orthogonalLoop=1;jettySize=auto;html=1;exitX=0.5;exitY=1;exitDx=0;exitDy=0;entryX=0.4;entryY=0.035;entryDx=0;entryDy=0;entryPerimeter=0;fontFamily=Times New Roman;endArrow=none;startFill=0;" edge="1" parent="1" source="zjp3u2C6ABEVa1yzkm6k-30" target="zjp3u2C6ABEVa1yzkm6k-25">
          <mxGeometry relative="1" as="geometry" />
        </mxCell>
        <mxCell id="zjp3u2C6ABEVa1yzkm6k-41" value="(1,n)" style="text;html=1;align=center;verticalAlign=middle;resizable=0;points=[];autosize=1;strokeColor=none;fillColor=none;fontSize=11;fontFamily=Times New Roman;" vertex="1" parent="1">
          <mxGeometry x="245" y="80" width="40" height="30" as="geometry" />
        </mxCell>
        <mxCell id="zjp3u2C6ABEVa1yzkm6k-42" style="edgeStyle=orthogonalEdgeStyle;rounded=0;orthogonalLoop=1;jettySize=auto;html=1;exitX=0;exitY=0.5;exitDx=0;exitDy=0;entryX=1.002;entryY=0.306;entryDx=0;entryDy=0;entryPerimeter=0;endArrow=none;startFill=0;" edge="1" parent="1" source="zjp3u2C6ABEVa1yzkm6k-3" target="xMFfn7sjVob-yf2wYUGk-1">
          <mxGeometry relative="1" as="geometry" />
        </mxCell>
      </root>
    </mxGraphModel>
  </diagram>
</mxfile>
